<svg xmlns="http://www.w3.org/2000/svg" width="290" height="80" viewBox="0 0 290 80" fill="none" role="img" aria-label="Support the community, star us! The button is at the top-right of this page">
  <text x="16" y="33" font-family="-apple-system, BlinkMacSystemFont, 'Segoe UI', Helvetica, Arial, sans-serif" font-size="15" font-weight="500" fill="#c8d1ff">Support the community,</text>
  <text x="16" y="63" font-family="-apple-system, BlinkMacSystemFont, 'Segoe UI', Helvetica, Arial, sans-serif" font-size="26" font-weight="700" fill="#eef2fe">star us!</text>

  <!-- arrow curving up to the star -->
  <path d="M150 58 C 192 64, 218 52, 238 30" stroke="#eef2fe" stroke-width="2.5" stroke-linecap="round" fill="none"/>
  <path d="M238 30 L 228 33 M238 30 L 238 42" stroke="#eef2fe" stroke-width="2.5" stroke-linecap="round" fill="none"/>

  <!-- exact GitHub star (octicon star-fill), GitHub gold -->
  <g transform="translate(244,5) scale(1.75)">
    <path d="M8 .25a.75.75 0 0 1 .673.418l1.882 3.815 4.21.612a.75.75 0 0 1 .416 1.279l-3.046 2.97.719 4.192a.751.751 0 0 1-1.088.791L8 12.347l-3.766 1.98a.75.75 0 0 1-1.088-.79l.72-4.194L.818 6.354a.75.75 0 0 1 .416-1.28l4.21-.611L7.327.668A.75.75 0 0 1 8 .25Z" fill="#e3b341"/>
  </g>
</svg>
